<svg width="80" height="80" viewBox="0 0 80 80" fill="none" xmlns="http://www.w3.org/2000/svg">
<g clip-path="url(#clip0_767_51)">
<path d="M31.86 18.71C32.6694 17.6828 33.7152 16.8666 34.9081 16.3309C36.1011 15.7953 37.4059 15.556 38.7114 15.6336C40.0168 15.7112 41.2841 16.1033 42.4052 16.7765C43.5263 17.4498 44.468 18.3842 45.15 19.5C53.6872 16.9124 62.5408 15.5159 71.46 15.35C67.8455 10.7199 63.2536 6.9448 58.0119 4.294C52.7702 1.6432 47.0081 0.182099 41.1367 0.0149444C35.2652 -0.152211 29.4292 0.97872 24.0452 3.32702C18.6612 5.67531 13.862 9.18306 9.98993 13.6C17.4441 14.5029 24.7776 16.2163 31.86 18.71Z" fill="white"/>
<path d="M73.85 18.72L71.4999 18.78C62.9102 18.9498 54.3843 20.2956 46.16 22.78C46.1702 22.9431 46.1702 23.1068 46.16 23.27C46.161 25.1169 45.4768 26.8985 44.2399 28.27C46.8818 31.9283 49.3286 35.7236 51.57 39.64C52.55 41.3534 53.4566 43.04 54.29 44.7H54.7C55.7725 44.6901 56.8212 45.0152 57.7 45.63C64.44 39.89 70.42 32.18 75.6399 22.5L75.8 22.21" fill="white"/>
<path d="M41.46 30.26C40.4426 30.6961 39.3469 30.9207 38.2399 30.92C37.1107 30.9248 35.9932 30.6923 34.9595 30.2375C33.9259 29.7827 32.9993 29.1158 32.2399 28.28C22.1599 33.38 11.62 41.46 4.48004 54.28C9.33738 56.1271 14.4245 57.3014 19.6 57.77C20.0049 56.9657 20.627 56.2908 21.3958 55.822C22.1646 55.3531 23.0494 55.109 23.9499 55.1174C24.8504 55.1257 25.7305 55.3861 26.4905 55.8691C27.2506 56.3521 27.86 57.0383 28.2499 57.85H28.68C36.2154 57.2733 43.5171 54.9706 50.02 51.12C49.8235 50.6093 49.7219 50.0672 49.72 49.52C49.7213 48.8841 49.8512 48.2549 50.1021 47.6706C50.353 47.0863 50.7197 46.5588 51.18 46.12C48.3541 40.5904 45.1044 35.2879 41.46 30.26Z" fill="white"/>
<path d="M58.05 75.27C58.91 68.45 57.37 61.17 54.79 54.27H54.73C53.8548 54.271 52.994 54.0472 52.23 53.62C45.13 57.9828 37.0898 60.5851 28.78 61.21H28.35C27.9848 62.0988 27.3616 62.8579 26.561 63.3893C25.7603 63.9207 24.8189 64.2001 23.858 64.1915C22.8971 64.1829 21.9607 63.8867 21.1697 63.341C20.3787 62.7953 19.7693 62.0252 19.42 61.13C14.2272 60.6982 9.11544 59.5749 4.22003 57.79C6.57234 62.4995 9.83105 66.6985 13.8095 70.146C17.788 73.5935 22.4079 76.2217 27.4042 77.88C32.4006 79.5383 37.6751 80.1941 42.9254 79.8097C48.1757 79.4253 53.2984 78.0084 57.9999 75.64L58.05 75.27Z" fill="white"/>
<path d="M77.5099 26.13C72.8897 34.5271 66.8273 42.0452 59.6 48.34C59.7015 48.7148 59.7519 49.1017 59.7499 49.49C59.7451 50.1838 59.5888 50.8683 59.2917 51.4953C58.9946 52.1223 58.5639 52.6769 58.03 53.12C60.82 60.56 62.03 67.41 61.64 73.61C69.3022 68.6912 75.0533 61.3015 77.9398 52.6659C80.8262 44.0303 80.6745 34.6676 77.5099 26.13Z" fill="white"/>
<path d="M30.56 25.27C30.2422 24.1607 30.1942 22.9916 30.42 21.86C22.9941 19.2741 15.2922 17.5625 7.47001 16.76C3.8636 21.7934 1.47741 27.5966 0.500284 33.7111C-0.476843 39.8255 -0.0181184 46.0834 1.84001 51.99C8.32 40.66 18.05 31.6 30.56 25.27Z" fill="white"/>
</g>
<defs>
<clipPath id="clip0_767_51">
<rect width="80" height="80" fill="white"/>
</clipPath>
</defs>
</svg>
